<svg viewBox="0 0 24 24" xmlns="http://www.w3.org/2000/svg" fill="currentColor">
  <path d="M2 2 L8 2 L10 5 L7 8 L2 7 Z" opacity="1"/>
  <path d="M10 2 L16 2 L18 6 L13 7 L10 4 Z" opacity="0.5"/>
  <path d="M17 3 L22 2 L22 8 L18 9 L16 6 Z" opacity="0.75"/>
  <path d="M2 9 L6 9 L9 13 L5 15 L2 13 Z" opacity="0.6"/>
  <path d="M8 10 L14 9 L16 13 L11 15 L8 13 Z" opacity="1"/>
  <path d="M17 10 L22 10 L22 16 L18 16 L16 13 Z" opacity="0.5"/>
  <path d="M2 15 L7 15 L8 19 L4 22 L2 20 Z" opacity="0.75"/>
  <path d="M9 16 L15 15 L16 19 L12 22 L9 21 Z" opacity="0.5"/>
  <path d="M17 17 L22 17 L22 22 L18 22 L16 20 Z" opacity="1"/>
</svg>
