<svg viewBox="0 0 24 24" xmlns="http://www.w3.org/2000/svg" fill="#000000">
  <!-- Top-left tile -->
  <polygon points="0,0  6,0  12,6  9,6  6,3  6,6  3,6  6,9  6,12  0,6"/>
  <polygon points="12,0  12,3  9,0"/>
  <polygon points="0,12  3,12  0,9"/>
  <!-- Top-right tile -->
  <polygon points="12,0  18,0  24,6  21,6  18,3  18,6  15,6  18,9  18,12  12,6"/>
  <polygon points="24,0  24,3  21,0"/>
  <polygon points="12,12  15,12  12,9"/>
  <!-- Bottom-left tile -->
  <polygon points="0,12  6,12  12,18  9,18  6,15  6,18  3,18  6,21  6,24  0,18"/>
  <polygon points="12,12  12,15  9,12"/>
  <polygon points="0,24  3,24  0,21"/>
  <!-- Bottom-right tile -->
  <polygon points="12,12  18,12  24,18  21,18  18,15  18,18  15,18  18,21  18,24  12,18"/>
  <polygon points="24,12  24,15  21,12"/>
  <polygon points="12,24  15,24  12,21"/>
</svg>
